# xmcd
#
# Track frame offsets:
# 150
# 10430
# 17635
# 32615
# 43230
# 51070
# 61510
# 69972
# 82302
# 91847
# 104352
# 110390
# 117435
# 127985
#
# Disc length: 1990 seconds
#
#
# Revision: 0
# Processed by: cddbd v1.5.1PL2 Copyright (c) Steve Scherf et al.
# Submitted via: FreeRIP 2.945 
#
DISCID=b007c40e
DTITLE=Sidney Matos - Cantar! Cantar! Cantar! Cantar!
DYEAR=1900
DGENRE=Infantil
TTITLE0=Cantar! Cantar! Cantar! Cantar! - Sidney Matos
TTITLE1=Pai Francisco - Folclore
TTITLE2=Natureza - Sidney Matos
TTITLE3=Peixinho do Mar - Folclore
TTITLE4=Acaleila - Sidney Matos
TTITLE5=Bandolim, Bandolá - Folclore
TTITLE6=Faz de Conta - Sidney Matos
TTITLE7=Tema do Boneco - Sidney Matos
TTITLE8=Rock da Limpeza - Sidney Matos
TTITLE9=Lindo Dia - Sidney Matos
TTITLE10=A Pipa - Sidney Matos
TTITLE11=Ponte da Vinhaça - Folclores
TTITLE12=Barulhos da Noite - Sidney Matos e Zé Zuca
TTITLE13=Pout-Purri de Rodas - Folclore
EXTD=Núcleo Experimental de Arte Educação\nSidney Matos - Teclado, Flauta Doce, Voz , Textos e Percussão\nLiza Kuenerz - violão e voz\nRosangela de Carvalho - violão e voz\nBia Bedran - Narração e Voz\nCláudio Valente - voz\nJuca dos Santos - Voz e percu
EXTD=ssão\nLene Bee - Voz\nAna Lúcia Santos - Regência de Coro Infantil\nSolos Vocais\nSidney Matos \nwww.musicalweb.com.br/neae
EXTT0=voz
EXTT1=
EXTT2=voz Sidney Matos
EXTT3=voz Sidney Matos
EXTT4=voz Cláudio Valente
EXTT5=
EXTT6=voz Bia Bedran
EXTT7=
EXTT8=voz Sidney Matos
EXTT9=voz Sidney Matos
EXTT10=voz Cláudio Valente
EXTT11=voz Juca Santos
EXTT12=voz Sidney Matos
EXTT13=
PLAYORDER=
